<svg xmlns="http://www.w3.org/2000/svg" width="48" height="48" viewBox="0 0 48 48" version="1.1"><path d="M 29 9.292 L 29 14 33.500 14 C 35.975 14, 38 13.869, 38 13.708 C 38 13.548, 35.975 11.429, 33.500 9 L 29 4.584 29 9.292 M 21.460 19.065 C 21.098 19.651, 21.091 21.669, 21.444 23.551 C 22.209 27.630, 20.905 30.558, 16.747 34.099 C 14.988 35.596, 13.997 37.185, 14.407 37.849 C 15.569 39.730, 17.845 39.166, 19.543 36.575 C 21.592 33.448, 26.278 31.775, 29.529 33.011 C 32.388 34.098, 35 33.358, 35 31.460 C 35 29.907, 31.500 28.573, 29.946 29.533 C 27.766 30.881, 25 26.861, 25 22.345 C 25 19.229, 24.593 18, 23.559 18 C 22.766 18, 21.822 18.479, 21.460 19.065 M 23 30 C 23 30.550, 23.450 31, 24 31 C 24.550 31, 25 30.550, 25 30 C 25 29.450, 24.550 29, 24 29 C 23.450 29, 23 29.450, 23 30" stroke="none" fill="#fceae4" fill-rule="evenodd"/><path d="M 8 24 L 8 45 24 45 L 40 45 40 28.712 L 40 12.425 35.216 7.712 L 30.431 3 19.216 3 L 8 3 8 24 M 29 9.292 L 29 14 33.500 14 C 35.975 14, 38 13.869, 38 13.708 C 38 13.548, 35.975 11.429, 33.500 9 L 29 4.584 29 9.292 M 21.460 19.065 C 21.098 19.651, 21.091 21.669, 21.444 23.551 C 22.209 27.630, 20.905 30.558, 16.747 34.099 C 14.988 35.596, 13.997 37.185, 14.407 37.849 C 15.569 39.730, 17.845 39.166, 19.543 36.575 C 21.592 33.448, 26.278 31.775, 29.529 33.011 C 32.388 34.098, 35 33.358, 35 31.460 C 35 29.907, 31.500 28.573, 29.946 29.533 C 27.766 30.881, 25 26.861, 25 22.345 C 25 19.229, 24.593 18, 23.559 18 C 22.766 18, 21.822 18.479, 21.460 19.065 M 23 30 C 23 30.550, 23.450 31, 24 31 C 24.550 31, 25 30.550, 25 30 C 25 29.450, 24.550 29, 24 29 C 23.450 29, 23 29.450, 23 30" stroke="none" fill="#fc5424" fill-rule="evenodd"/></svg>